<?xml version="1.0" standalone="no"?>
<!DOCTYPE svg PUBLIC "-//W3C//DTD SVG 20010904//EN"
 "http://www.w3.org/TR/2001/REC-SVG-20010904/DTD/svg10.dtd">
<svg version="1.0" xmlns="http://www.w3.org/2000/svg"
 width="820.000000pt" height="820.000000pt" viewBox="0 0 820.000000 820.000000"
 preserveAspectRatio="xMidYMid meet">
<metadata>
Created by potrace 1.11, written by Peter Selinger 2001-2013
</metadata>
<g transform="translate(0.000000,820.000000) scale(0.100000,-0.100000)"
fill="#000000" stroke="none">
<path d="M7376 6404 c-71 -23 -122 -62 -275 -215 -119 -118 -233 -243 -342
-374 -46 -55 -94 -111 -107 -125 l-23 -25 10 28 c42 111 -1 233 -102 291 -38
22 -118 42 -157 39 -62 -4 -149 -29 -189 -53 -18 -12 -34 -20 -35 -18 -1 2
-11 23 -21 48 -23 50 -105 139 -153 164 -38 20 -125 39 -167 37 -113 -6 -248
-103 -271 -196 -8 -34 -13 -33 -230 15 -38 8 -369 46 -494 56 -30 2 -73 7 -95
10 -108 16 -309 21 -717 19 -245 -2 -451 -6 -458 -10 -6 -4 -28 -8 -48 -10
-45 -4 -155 -15 -202 -20 -19 -2 -104 -11 -189 -20 -84 -9 -174 -20 -200 -26
-241 -51 -520 -110 -538 -115 -15 -4 -23 -2 -23 6 0 21 -92 150 -149 209 -96
98 -186 155 -286 180 -128 32 -163 31 -334 -10 -225 -54 -515 -265 -749 -545
-124 -149 -244 -349 -287 -479 -38 -114 -66 -258 -69 -349 -2 -53 -6 -63 -48
-115 -25 -31 -51 -68 -59 -81 -8 -14 -21 -34 -31 -45 -9 -11 -29 -47 -44 -80
-15 -33 -31 -62 -34 -65 -5 -4 -29 -64 -74 -188 -9 -23 -16 -50 -16 -60 0 -9
-10 -35 -22 -57 -38 -70 -49 -141 -33 -205 7 -30 16 -84 19 -120 25 -269 113
-490 293 -730 122 -163 338 -364 523 -486 30 -20 64 -45 75 -55 11 -9 56 -36
100 -59 44 -23 87 -48 95 -55 15 -13 280 -143 415 -205 39 -17 120 -47 180
-67 61 -19 126 -43 145 -53 19 -9 98 -34 175 -55 77 -20 149 -42 160 -48 11
-6 36 -14 55 -18 19 -4 88 -19 154 -33 65 -15 132 -29 150 -32 17 -2 58 -11
91 -20 97 -24 142 -32 285 -49 74 -9 149 -18 165 -20 51 -6 137 -15 210 -21
39 -3 81 -8 95 -11 86 -19 1141 -26 1170 -8 6 4 32 8 58 10 96 7 178 15 212
20 19 3 58 7 85 10 28 2 66 7 85 9 19 3 94 13 165 21 72 9 141 20 155 25 23 9
129 33 202 45 100 17 305 69 325 82 13 9 23 13 23 9 0 -3 11 -1 25 4 38 15 76
22 115 23 67 1 82 -2 74 -16 -6 -9 -4 -9 7 -1 8 7 41 14 74 17 33 4 76 10 95
15 19 5 45 8 57 7 13 -1 21 1 18 4 -3 2 9 10 27 16 23 8 37 8 47 1 11 -8 13
-8 7 1 -4 8 9 20 41 35 61 28 194 122 262 186 29 27 78 62 109 77 31 15 64 33
72 40 8 7 51 31 95 55 44 23 89 50 100 60 11 9 45 34 75 54 78 51 164 118 218
168 26 24 57 50 69 58 33 23 213 226 272 308 60 84 144 234 162 290 6 20 15
42 20 47 9 12 20 52 51 185 30 131 32 346 4 475 -20 91 -31 128 -60 204 -35
90 -104 229 -128 258 -7 9 -17 26 -23 38 -9 20 -25 40 -118 151 -28 32 -28 34
-16 92 11 50 10 68 -5 128 -18 73 -68 146 -112 166 -23 11 -23 11 -4 35 26 34
54 164 46 216 -12 71 -36 144 -56 168 -34 41 -36 44 -44 57 -4 7 10 34 38 70
25 32 46 63 46 69 0 6 4 13 8 15 13 5 50 99 58 148 27 147 -18 281 -114 345
-62 41 -145 52 -216 29z"/>
</g>
</svg>
