<?xml version="1.0" standalone="no"?>
<!DOCTYPE svg PUBLIC "-//W3C//DTD SVG 20010904//EN"
 "http://www.w3.org/TR/2001/REC-SVG-20010904/DTD/svg10.dtd">
<svg version="1.0" xmlns="http://www.w3.org/2000/svg"
 width="820.000000pt" height="820.000000pt" viewBox="0 0 820.000000 820.000000"
 preserveAspectRatio="xMidYMid meet">
<metadata>
Created by potrace 1.11, written by Peter Selinger 2001-2013
</metadata>
<g transform="translate(0.000000,820.000000) scale(0.100000,-0.100000)"
fill="#000000" stroke="none">
<path d="M3839 8196 c-2 -2 -44 -7 -94 -10 -87 -7 -127 -11 -190 -21 -16 -3
-50 -7 -75 -10 -25 -4 -68 -10 -96 -16 -28 -5 -64 -12 -80 -15 -248 -44 -621
-163 -874 -276 -777 -350 -1442 -946 -1867 -1671 -81 -138 -181 -338 -229
-454 -19 -49 -41 -101 -49 -118 -7 -16 -21 -52 -30 -80 -9 -27 -20 -59 -24
-70 -40 -95 -133 -434 -157 -575 -4 -25 -8 -47 -9 -50 -1 -3 -5 -30 -9 -60 -5
-30 -10 -64 -12 -75 -7 -36 -24 -179 -31 -265 -4 -47 -8 -200 -7 -340 0 -259
6 -367 28 -520 3 -19 8 -55 11 -80 7 -52 19 -117 46 -245 11 -49 21 -99 24
-110 46 -222 187 -608 312 -860 111 -222 285 -502 420 -674 343 -438 761 -802
1219 -1064 82 -46 359 -187 369 -187 3 0 24 -9 48 -19 256 -118 643 -230 967
-281 251 -39 390 -48 695 -45 255 3 338 8 510 31 653 88 1289 340 1825 724
478 342 896 804 1185 1309 65 114 175 336 175 353 0 8 4 18 9 23 32 35 199
512 231 665 4 19 15 69 25 110 24 107 49 254 61 354 2 22 7 55 9 71 26 175 26
828 1 906 -3 8 -7 39 -10 69 -8 81 -36 248 -55 330 -5 25 -12 56 -15 70 -28
146 -117 426 -206 645 -405 1001 -1244 1833 -2256 2239 -348 139 -680 224
-1064 272 -120 15 -719 31 -731 20z"/>
</g>
</svg>
