<svg id="Layer_1" data-name="Layer 1" xmlns="http://www.w3.org/2000/svg" viewBox="0 0 589.87 166.79"><defs><style>.sonas-yellow{fill:#fab616;}.sonas-dark-blue{fill:#253e92;}.sonas-aqua-blue{fill:#14a8e0;}.sonas-green{fill:#2c9d48;}.sonas-dark-grey{fill:#505150;}</style></defs><title>sonas-logo</title><path class="sonas-yellow" d="M162.67,0c-2.27,24-11.25,45.43-27.5,61.68S97.47,86.91,73.5,89.17c2.25-24,11.25-45.42,27.5-61.67S138.68,2.26,162.67,0Z"/><path class="sonas-dark-blue" d="M0,33.12c15.78,1.49,29.9,7.41,40.6,18.1S57.2,76,58.69,91.82C42.91,90.33,28.8,84.41,18.1,73.71S1.48,48.91,0,33.12Z"/><path class="sonas-aqua-blue" d="M0,166.79c1.49-15.78,7.41-29.9,18.1-40.6s24.81-16.61,40.59-18.1c-1.48,15.79-7.41,29.89-18.1,40.59S15.79,165.31,0,166.79Z"/><path class="sonas-green" d="M128.93,166.79c-15.78-1.49-29.9-7.41-40.6-18.1s-16.61-24.81-18.1-40.59c15.79,1.48,29.89,7.41,40.59,18.1s16.62,24.8,18.1,40.59Z"/><circle class="sonas-yellow" cx="64.2" cy="16.56" r="16.56"/><path class="sonas-dark-blue" d="M177.47,92a6.66,6.66,0,0,1,6.76-6.76A7.11,7.11,0,0,1,188,86.44a40.57,40.57,0,0,0,23.57,8c11.79,0,18-4.85,18-12,0-8.32-9.53-11.09-20.28-13.52-14.22-3.29-30.86-7.11-30.86-25.13C178.51,30.45,190,19,210.41,19c11.61,0,20.8,3.47,27.91,8.67a6.36,6.36,0,0,1-3.64,11.61,6,6,0,0,1-3.47-1.21,34.77,34.77,0,0,0-20.63-6.41c-10.57,0-17.16,4.16-17.16,10.92,0,7.28,9,9.71,19.42,12.13C227.4,58,244.73,62,244.73,81.24c0,14.39-11.79,25.66-33.8,25.66-11.61,0-22-2.95-30.51-9.36A6.89,6.89,0,0,1,177.47,92Z"/><path class="sonas-dark-blue" d="M255,62.87C255,38.77,271.25,19,297.26,19c26.18,0,42.3,19.76,42.3,43.86,0,24.27-16.12,44-42.3,44C271.25,106.89,255,87.13,255,62.87Zm68.3,0c0-15.77-9.19-30-26-30-16.64,0-26,14.21-26,30,0,15.95,9.36,30.16,26,30.16C314.07,93,323.26,78.81,323.26,62.87Z"/><path class="sonas-dark-blue" d="M423.63,46.05V97.88a7.92,7.92,0,0,1-8,7.8,7.73,7.73,0,0,1-7.63-7.8V51.25c0-13.87-7.11-18.38-17.85-18.38-9.71,0-18.55,5.89-23.05,12.13V97.88a7.88,7.88,0,0,1-7.8,7.8,7.77,7.77,0,0,1-7.8-7.8V28a7.73,7.73,0,0,1,7.63-7.8,7.92,7.92,0,0,1,8,7.8V32.7C372.84,26.12,383.93,19,396.76,19,414.44,19,423.63,28.37,423.63,46.05Z"/><path class="sonas-dark-blue" d="M507.88,48.3V97.88a7.8,7.8,0,1,1-15.6,0V95.45c-6.42,7.45-16.12,11.44-27.39,11.44-13.87,0-29.12-9.36-29.12-27.74,0-19.07,15.08-27.39,29.12-27.39,11.27,0,21,3.64,27.39,11.09V49c0-10.4-8.5-16.64-20.46-16.64a32,32,0,0,0-20.63,7.28,7.11,7.11,0,0,1-3.81,1.21,6.36,6.36,0,0,1-6.24-6.41,6.08,6.08,0,0,1,2.6-5C452.58,22.3,462.63,19,474.25,19,492.45,19,507.88,27,507.88,48.3Zm-15.6,38.13V72.23c-4.68-6.24-12.83-9.53-21.5-9.53-11.27,0-19.24,6.76-19.24,16.64S459.52,96,470.78,96C479.45,96,487.6,92.68,492.28,86.44Z"/><path class="sonas-dark-blue" d="M522.62,92a6.66,6.66,0,0,1,6.76-6.76,7.11,7.11,0,0,1,3.81,1.21,40.57,40.57,0,0,0,23.57,8c11.79,0,18-4.85,18-12,0-8.32-9.53-11.09-20.28-13.52-14.22-3.29-30.86-7.11-30.86-25.13,0-13.35,11.44-24.79,31.9-24.79,11.61,0,20.8,3.47,27.91,8.67a6.36,6.36,0,0,1-3.64,11.61,6,6,0,0,1-3.47-1.21,34.77,34.77,0,0,0-20.63-6.41c-10.57,0-17.16,4.16-17.16,10.92,0,7.28,9,9.71,19.42,12.13C572.54,58,589.87,62,589.87,81.24c0,14.39-11.79,25.66-33.8,25.66-11.61,0-22-2.95-30.51-9.36A6.89,6.89,0,0,1,522.62,92Z"/><path class="sonas-dark-grey" d="M198.81,131.87a1.18,1.18,0,0,1,.29.84v23.37a1.18,1.18,0,0,1-.29.84,1.08,1.08,0,0,1-.83.31,1,1,0,0,1-.79-.32,1.19,1.19,0,0,1-.29-.83V145.17H180.75v10.91a1.2,1.2,0,0,1-.29.83,1,1,0,0,1-.79.32,1.06,1.06,0,0,1-.81-.32,1.15,1.15,0,0,1-.31-.83V132.72a1.15,1.15,0,0,1,.31-.83,1.06,1.06,0,0,1,.81-.32,1,1,0,0,1,.79.32,1.2,1.2,0,0,1,.29.83v10.52H196.9V132.72a1.19,1.19,0,0,1,.29-.83,1,1,0,0,1,.79-.32A1.08,1.08,0,0,1,198.81,131.87Z"/><path class="sonas-dark-grey" d="M213.52,155.78a10.12,10.12,0,0,1-3.91-4.49,18.09,18.09,0,0,1,0-13.78A10.15,10.15,0,0,1,213.5,133a12.39,12.39,0,0,1,12,0,10.14,10.14,0,0,1,3.91,4.47,18.14,18.14,0,0,1,0,13.8,10.13,10.13,0,0,1-3.91,4.49,12.35,12.35,0,0,1-12,0Zm12.63-3.28q2.37-2.87,2.37-8.11t-2.35-8.09a9.13,9.13,0,0,0-13.28,0q-2.35,2.87-2.35,8.08t2.35,8.09a9.07,9.07,0,0,0,13.26,0Z"/><path class="sonas-dark-grey" d="M263.29,131.89a1.15,1.15,0,0,1,.31.83v23.37a1.2,1.2,0,0,1-.29.83,1,1,0,0,1-.79.32.92.92,0,0,1-.75-.31,1.29,1.29,0,0,1-.25-.84V136.16L253,152.6a1.26,1.26,0,0,1-2.37,0l-8.58-16.3v19.78a1.29,1.29,0,0,1-.25.84.92.92,0,0,1-.75.31,1,1,0,0,1-.81-.31,1.23,1.23,0,0,1-.27-.84V132.72a1.15,1.15,0,0,1,.31-.83,1.1,1.1,0,0,1,.84-.32q.65,0,1.08.83l9.66,18.52,9.51-18.52a1.25,1.25,0,0,1,1.08-.83A1.1,1.1,0,0,1,263.29,131.89Z"/><path class="sonas-dark-grey" d="M274.05,156.73a1,1,0,0,1-.34-.79V132.86a1,1,0,0,1,.34-.79,1.18,1.18,0,0,1,.84-.32h13.64a1,1,0,0,1,.74.25.94.94,0,0,1,.27.72.89.89,0,0,1-.27.68,1,1,0,0,1-.74.25H275.9v9.58h11.92a1,1,0,0,1,.74.25,1.09,1.09,0,0,1,0,1.44,1,1,0,0,1-.74.25H275.9v10h12.63a1.09,1.09,0,0,1,.74.23.88.88,0,0,1,.27.7.93.93,0,0,1-.27.72,1,1,0,0,1-.74.25H274.9A1.18,1.18,0,0,1,274.05,156.73Z"/><path class="sonas-dark-grey" d="M336.27,131.87a1.18,1.18,0,0,1,.29.84v23.37a1.18,1.18,0,0,1-.29.84,1.08,1.08,0,0,1-.83.31,1,1,0,0,1-.79-.32,1.19,1.19,0,0,1-.29-.83V145.17H318.21v10.91a1.2,1.2,0,0,1-.29.83,1,1,0,0,1-.79.32,1.06,1.06,0,0,1-.81-.32,1.15,1.15,0,0,1-.31-.83V132.72a1.15,1.15,0,0,1,.31-.83,1.06,1.06,0,0,1,.81-.32,1,1,0,0,1,.79.32,1.2,1.2,0,0,1,.29.83v10.52h16.15V132.72a1.19,1.19,0,0,1,.29-.83,1,1,0,0,1,.79-.32A1.08,1.08,0,0,1,336.27,131.87Z"/><path class="sonas-dark-grey" d="M347,156.73a1,1,0,0,1-.34-.79V132.86a1,1,0,0,1,.34-.79,1.18,1.18,0,0,1,.84-.32H361.5a1,1,0,0,1,.74.25.94.94,0,0,1,.27.72.89.89,0,0,1-.27.68,1,1,0,0,1-.74.25H348.87v9.58h11.92a1,1,0,0,1,.74.25,1.09,1.09,0,0,1,0,1.44,1,1,0,0,1-.74.25H348.87v10H361.5a1.09,1.09,0,0,1,.74.23.88.88,0,0,1,.27.7.93.93,0,0,1-.27.72,1,1,0,0,1-.74.25H347.86A1.18,1.18,0,0,1,347,156.73Z"/><path class="sonas-dark-grey" d="M391.94,156.3a.83.83,0,0,1-.32.66,1.14,1.14,0,0,1-.75.27,1,1,0,0,1-.56-.18,1.14,1.14,0,0,1-.41-.5l-2.73-6.25H373.24l-2.76,6.25a1.06,1.06,0,0,1-1,.68,1.07,1.07,0,0,1-.74-.27.89.89,0,0,1-.3-.7.9.9,0,0,1,.07-.4L379,132.32a1.18,1.18,0,0,1,1.18-.79,1.36,1.36,0,0,1,.74.22,1.2,1.2,0,0,1,.48.57l10.44,23.54A1,1,0,0,1,391.94,156.3Zm-17.87-7.93H386.3l-6.1-13.89Z"/><path class="sonas-dark-grey" d="M400.28,156.76a.9.9,0,0,1-.34-.72V132.72a1.15,1.15,0,0,1,.31-.83,1.06,1.06,0,0,1,.81-.32,1.08,1.08,0,0,1,.83.31,1.18,1.18,0,0,1,.29.84v22.4h12.27a1,1,0,0,1,.74.25,1.09,1.09,0,0,1,0,1.44,1,1,0,0,1-.74.25H401.09A1.21,1.21,0,0,1,400.28,156.76Z"/><path class="sonas-dark-grey" d="M424.71,156.91a1.19,1.19,0,0,1-.29-.83v-22.4h-8.29a1,1,0,0,1-.74-.25,1.09,1.09,0,0,1,0-1.44,1,1,0,0,1,.74-.25h18.74a1,1,0,0,1,.72.27,1,1,0,0,1,0,1.4,1,1,0,0,1-.72.27h-8.26v22.4a1.16,1.16,0,0,1-.3.83,1.06,1.06,0,0,1-.81.32A1,1,0,0,1,424.71,156.91Z"/><path class="sonas-dark-grey" d="M463.18,131.87a1.18,1.18,0,0,1,.29.84v23.37a1.18,1.18,0,0,1-.29.84,1.08,1.08,0,0,1-.83.31,1,1,0,0,1-.79-.32,1.19,1.19,0,0,1-.29-.83V145.17H445.13v10.91a1.2,1.2,0,0,1-.29.83,1,1,0,0,1-.79.32,1.06,1.06,0,0,1-.81-.32,1.15,1.15,0,0,1-.31-.83V132.72a1.15,1.15,0,0,1,.31-.83,1.06,1.06,0,0,1,.81-.32,1,1,0,0,1,.79.32,1.2,1.2,0,0,1,.29.83v10.52h16.15V132.72a1.19,1.19,0,0,1,.29-.83,1,1,0,0,1,.79-.32A1.08,1.08,0,0,1,463.18,131.87Z"/><path class="sonas-dark-grey" d="M493.21,155.78a10.13,10.13,0,0,1-4-4.49,17.91,17.91,0,0,1,0-13.8,10.14,10.14,0,0,1,4-4.47,11.66,11.66,0,0,1,6.12-1.56,13,13,0,0,1,4.58.81,10.1,10.1,0,0,1,3.68,2.32,1.4,1.4,0,0,1,.5,1,1,1,0,0,1-.23.68.67.67,0,0,1-.52.29,1.42,1.42,0,0,1-.83-.36A13.55,13.55,0,0,0,503,134a10.24,10.24,0,0,0-3.7-.61,8.26,8.26,0,0,0-6.73,2.87q-2.39,2.87-2.39,8.08t2.39,8.11a8.26,8.26,0,0,0,6.73,2.87,10.24,10.24,0,0,0,3.7-.61,13.5,13.5,0,0,0,3.52-2.19,1.72,1.72,0,0,1,.83-.36.67.67,0,0,1,.52.29,1,1,0,0,1,.23.68,1.4,1.4,0,0,1-.5,1,10.09,10.09,0,0,1-3.68,2.31,13,13,0,0,1-4.58.81A11.67,11.67,0,0,1,493.21,155.78Z"/><path class="sonas-dark-grey" d="M537.45,156.3a.83.83,0,0,1-.32.66,1.14,1.14,0,0,1-.75.27,1,1,0,0,1-.56-.18,1.14,1.14,0,0,1-.41-.5l-2.73-6.25H518.75L516,156.55a1.06,1.06,0,0,1-1,.68,1.07,1.07,0,0,1-.74-.27.89.89,0,0,1-.3-.7.9.9,0,0,1,.07-.4l10.48-23.54a1.18,1.18,0,0,1,1.18-.79,1.36,1.36,0,0,1,.74.22,1.2,1.2,0,0,1,.48.57l10.44,23.54A1,1,0,0,1,537.45,156.3Zm-17.87-7.93h12.24l-6.1-13.89Z"/><path class="sonas-dark-grey" d="M564.58,156.33a.85.85,0,0,1-.31.66,1,1,0,0,1-.7.27,1.1,1.1,0,0,1-1-.57l-4.85-7.75a6.43,6.43,0,0,0-2.14-2.26,6.28,6.28,0,0,0-3-.61h-4.92v10a1.14,1.14,0,0,1-.31.84,1.22,1.22,0,0,1-1.61,0,1.14,1.14,0,0,1-.31-.84V132.86a1,1,0,0,1,.34-.79,1.18,1.18,0,0,1,.84-.32h8.94a9.28,9.28,0,0,1,6.14,1.81A7.46,7.46,0,0,1,562,143.7a8.12,8.12,0,0,1-5.17,2.08,4.34,4.34,0,0,1,1.58,1,9.38,9.38,0,0,1,1.47,1.85l4.45,7.14A1.12,1.12,0,0,1,564.58,156.33Zm-9.15-12.17q6.25,0,6.25-5.35a4.76,4.76,0,0,0-1.54-3.89,7.28,7.28,0,0,0-4.7-1.27h-7.79v10.52Z"/><path class="sonas-dark-grey" d="M573.86,156.73a1,1,0,0,1-.34-.79V132.86a1,1,0,0,1,.34-.79,1.18,1.18,0,0,1,.84-.32h13.64a1,1,0,0,1,.74.25.94.94,0,0,1,.27.72.89.89,0,0,1-.27.68,1,1,0,0,1-.74.25H575.71v9.58h11.92a1,1,0,0,1,.74.25,1.09,1.09,0,0,1,0,1.44,1,1,0,0,1-.74.25H575.71v10h12.63a1.09,1.09,0,0,1,.74.23.88.88,0,0,1,.27.7.93.93,0,0,1-.27.72,1,1,0,0,1-.74.25H574.7A1.18,1.18,0,0,1,573.86,156.73Z"/></svg>